HIERARCHY
ROOT Hips
{
    OFFSET   0.000000   0.000000   0.000000
    CHANNELS 6 Xposition Yposition Zposition Zrotation Xrotation Yrotation
    JOINT Chest
    {
        OFFSET   0.000000   8.007230   0.000000
        CHANNELS 3 Zrotation Xrotation Yrotation
        JOINT Chest2
        {
            OFFSET   0.000000  22.077100   0.000000
            CHANNELS 3 Zrotation Xrotation Yrotation
            JOINT Neck
            {
                OFFSET   0.000000  23.254800  -0.000021
                CHANNELS 3 Zrotation Xrotation Yrotation
                JOINT Head
                {
                    OFFSET   0.000000  14.370000   1.956610
                    CHANNELS 3 Zrotation Xrotation Yrotation
                    End Site
                    {
                        OFFSET   0.000000  19.566000   0.000000
                    }
                }
            }
            JOINT LeftCollar
            {
                OFFSET   3.911900  19.017000  -0.467063
                CHANNELS 3 Zrotation Xrotation Yrotation
                JOINT LeftShoulder
                {
                    OFFSET  10.383700   0.000000   0.000000
                    CHANNELS 3 Zrotation Xrotation Yrotation
                    JOINT LeftElbow
                    {
                        OFFSET  26.662100   0.001529   0.000325
                        CHANNELS 3 Zrotation Xrotation Yrotation
                        JOINT LeftWrist
                        {
                            OFFSET  28.869000  -0.000011  -0.000096
                            CHANNELS 3 Zrotation Xrotation Yrotation
                            JOINT LeftFinger0
                            {
                                OFFSET   2.044650  -2.323460   3.252850
                                CHANNELS 3 Zrotation Xrotation Yrotation
                                JOINT LeftFinger01
                                {
                                    OFFSET   3.088130   0.000000   0.000000
                                    CHANNELS 3 Zrotation Xrotation Yrotation
                                    JOINT LeftFinger02
                                    {
                                        OFFSET   2.639460   0.000000   0.000000
                                        CHANNELS 3 Zrotation Xrotation Yrotation
                                        End Site
                                        {
                                            OFFSET   2.582190   0.000000   0.000000
                                        }
                                    }
                                }
                            }
                            JOINT LeftFinger1
                            {
                                OFFSET   8.364480   0.000000   3.252850
                                CHANNELS 3 Zrotation Xrotation Yrotation
                                JOINT LeftFinger11
                                {
                                    OFFSET   4.646930   0.000000   0.000000
                                    CHANNELS 3 Zrotation Xrotation Yrotation
                                    JOINT LeftFinger12
                                    {
                                        OFFSET   2.323460   0.000000   0.000000
                                        CHANNELS 3 Zrotation Xrotation Yrotation
                                        End Site
                                        {
                                            OFFSET   2.273050   0.000000   0.000000
                                        }
                                    }
                                }
                            }
                            JOINT LeftFinger2
                            {
                                OFFSET   8.364480   0.000016   1.078090
                                CHANNELS 3 Zrotation Xrotation Yrotation
                                JOINT LeftFinger21
                                {
                                    OFFSET   5.111620   0.000000   0.000000
                                    CHANNELS 3 Zrotation Xrotation Yrotation
                                    JOINT LeftFinger22
                                    {
                                        OFFSET   2.788160   0.000017   0.000000
                                        CHANNELS 3 Zrotation Xrotation Yrotation
                                        End Site
                                        {
                                            OFFSET   2.727660   0.000000   0.000000
                                        }
                                    }
                                }
                            }
                            JOINT LeftFinger3
                            {
                                OFFSET   7.899780   0.000015  -1.078090
                                CHANNELS 3 Zrotation Xrotation Yrotation
                                JOINT LeftFinger31
                                {
                                    OFFSET   4.646920   0.000000   0.000000
                                    CHANNELS 3 Zrotation Xrotation Yrotation
                                    JOINT LeftFinger32
                                    {
                                        OFFSET   2.323470   0.000000   0.000000
                                        CHANNELS 3 Zrotation Xrotation Yrotation
                                        End Site
                                        {
                                            OFFSET   2.273050   0.000000   0.000000
                                        }
                                    }
                                }
                            }
                            JOINT LeftFinger4
                            {
                                OFFSET   7.435090   0.000000  -3.252850
                                CHANNELS 3 Zrotation Xrotation Yrotation
                                JOINT LeftFinger41
                                {
                                    OFFSET   3.717550   0.000000   0.000000
                                    CHANNELS 3 Zrotation Xrotation Yrotation
                                    JOINT LeftFinger42
                                    {
                                        OFFSET   1.858760   0.000000   0.000000
                                        CHANNELS 3 Zrotation Xrotation Yrotation
                                        End Site
                                        {
                                            OFFSET   1.818440   0.000000   0.000000
                                        }
                                    }
                                }
                            }
                        }
                    }
                }
            }
            JOINT RightCollar
            {
                OFFSET  -3.911900  19.017000  -0.467062
                CHANNELS 3 Zrotation Xrotation Yrotation
                JOINT RightShoulder
                {
                    OFFSET -10.383700   0.000015   0.000000
                    CHANNELS 3 Zrotation Xrotation Yrotation
                    JOINT RightElbow
                    {
                        OFFSET -26.662100   0.001341   0.000385
                        CHANNELS 3 Zrotation Xrotation Yrotation
                        JOINT RightWrist
                        {
                            OFFSET -28.869000   0.000025  -0.000080
                            CHANNELS 3 Zrotation Xrotation Yrotation
                            JOINT RightFinger0
                            {
                                OFFSET  -2.044650  -2.323490   3.252850
                                CHANNELS 3 Zrotation Xrotation Yrotation
                                JOINT RightFinger01
                                {
                                    OFFSET  -3.088130   0.000000   0.000000
                                    CHANNELS 3 Zrotation Xrotation Yrotation
                                    JOINT RightFinger02
                                    {
                                        OFFSET  -2.639460   0.000000   0.000000
                                        CHANNELS 3 Zrotation Xrotation Yrotation
                                        End Site
                                        {
                                            OFFSET  -2.582190   0.000000   0.000000
                                        }
                                    }
                                }
                            }
                            JOINT RightFinger1
                            {
                                OFFSET  -8.364480   0.000000   3.252850
                                CHANNELS 3 Zrotation Xrotation Yrotation
                                JOINT RightFinger11
                                {
                                    OFFSET  -4.646930   0.000000   0.000000
                                    CHANNELS 3 Zrotation Xrotation Yrotation
                                    JOINT RightFinger12
                                    {
                                        OFFSET  -2.323470   0.000000   0.000000
                                        CHANNELS 3 Zrotation Xrotation Yrotation
                                        End Site
                                        {
                                            OFFSET  -2.273050   0.000000   0.000000
                                        }
                                    }
                                }
                            }
                            JOINT RightFinger2
                            {
                                OFFSET  -8.364480   0.000000   1.078090
                                CHANNELS 3 Zrotation Xrotation Yrotation
                                JOINT RightFinger21
                                {
                                    OFFSET  -5.111610   0.000000   0.000000
                                    CHANNELS 3 Zrotation Xrotation Yrotation
                                    JOINT RightFinger22
                                    {
                                        OFFSET  -2.788160   0.000000   0.000000
                                        CHANNELS 3 Zrotation Xrotation Yrotation
                                        End Site
                                        {
                                            OFFSET  -2.727660   0.000000   0.000000
                                        }
                                    }
                                }
                            }
                            JOINT RightFinger3
                            {
                                OFFSET  -7.899780   0.000000  -1.078090
                                CHANNELS 3 Zrotation Xrotation Yrotation
                                JOINT RightFinger31
                                {
                                    OFFSET  -4.646920   0.000000   0.000000
                                    CHANNELS 3 Zrotation Xrotation Yrotation
                                    JOINT RightFinger32
                                    {
                                        OFFSET  -2.323470   0.000000   0.000000
                                        CHANNELS 3 Zrotation Xrotation Yrotation
                                        End Site
                                        {
                                            OFFSET  -2.273050   0.000000   0.000000
                                        }
                                    }
                                }
                            }
                            JOINT RightFinger4
                            {
                                OFFSET  -7.435090   0.000000  -3.252850
                                CHANNELS 3 Zrotation Xrotation Yrotation
                                JOINT RightFinger41
                                {
                                    OFFSET  -3.717550   0.000000   0.000000
                                    CHANNELS 3 Zrotation Xrotation Yrotation
                                    JOINT RightFinger42
                                    {
                                        OFFSET  -1.858770   0.000000   0.000000
                                        CHANNELS 3 Zrotation Xrotation Yrotation
                                        End Site
                                        {
                                            OFFSET  -1.818440   0.000000   0.000000
                                        }
                                    }
                                }
                            }
                        }
                    }
                }
            }
        }
    }
    JOINT LeftHip
    {
        OFFSET   9.783010   0.000000   0.000000
        CHANNELS 3 Zrotation Xrotation Yrotation
        JOINT LeftKnee
        {
            OFFSET   0.000070 -41.789100   0.000028
            CHANNELS 3 Zrotation Xrotation Yrotation
            JOINT LeftAnkle
            {
                OFFSET   0.000087 -41.133200  -0.000100
                CHANNELS 3 Zrotation Xrotation Yrotation
                JOINT LeftToe
                {
                    OFFSET   0.000000  -6.358960  14.674500
                    CHANNELS 3 Zrotation Xrotation Yrotation
                    End Site
                    {
                        OFFSET   0.000000   0.000000   3.913200
                    }
                }
            }
        }
    }
    JOINT RightHip
    {
        OFFSET  -9.783020   0.000000   0.000000
        CHANNELS 3 Zrotation Xrotation Yrotation
        JOINT RightKnee
        {
            OFFSET   0.000044 -41.789100  -0.000870
            CHANNELS 3 Zrotation Xrotation Yrotation
            JOINT RightAnkle
            {
                OFFSET  -0.000090 -41.133200  -0.000245
                CHANNELS 3 Zrotation Xrotation Yrotation
                JOINT RightToe
                {
                    OFFSET   0.000000  -6.358960  14.674500
                    CHANNELS 3 Zrotation Xrotation Yrotation
                    End Site
                    {
                        OFFSET   0.000000   0.000000   3.913200
                    }
                }
            }
        }
    }
}
MOTION
Frames: 4
Frame Time:   0.016667
 -0.080699  89.597600  -0.459651  -2.159230  -4.091240  -1.972900   0.698600   2.121930  -0.240309   1.407540   4.240740  -0.507026   1.299450   0.378560  -0.005949   2.137490   0.766531   0.286997  -2.260670  -1.718970   2.596140 -77.435800  14.211700   2.329110  -0.550455  -0.812794 -16.137100  13.582200  -9.909630   6.106610  41.543300  35.311700 -64.010000 -30.537800  -0.002301   0.006296 -10.257400   0.013957   0.002827 -23.487800   3.037330  -6.944240 -19.368300  -0.007878   0.000644 -13.557800  -0.005632   0.001572 -25.391900  -0.214242   0.451318 -25.392700   0.001890   0.005420 -16.911600  -0.001383  -0.010784 -24.555700  -0.205060   0.454403 -24.556600   0.002811   0.001717 -16.354700   0.002003   0.000157 -25.549900  -0.212773   0.450735 -38.326100   0.002691  -0.002353 -25.525200   0.001525   0.000948   7.534580   1.708990   2.048770  71.810600   6.976270  -6.860840  -0.231955  -9.788170  13.689900 -12.339100  -4.250100  -2.104020 -36.161200  30.322800  63.133100  33.641600  -0.004949  -0.006829  11.819700   0.003729  -0.003684  30.616500   5.487660   9.179510  25.411800  -0.005783  -0.007049  17.788300  -0.002975  -0.008797  28.547400   2.320290   4.255300  37.955800  -0.004803  -0.004695  25.278600  -0.004180  -0.001649  27.529600   1.942020   3.717970  29.729700  -0.002425  -0.009382  19.800000  -0.004195  -0.006157  37.660500  -0.420632  -0.536497  56.493600   0.001614  -0.013605  37.624700  -0.010525  -0.001733   1.353190   5.882450   3.528700   1.595400   0.263876  10.919100  -2.171080  -2.828590   1.662450  -0.000000   0.000000  -0.000000   3.072310   3.473680  -3.260310  -0.938240   3.247370  -8.700950  -0.149821  -3.779550   1.788130  -0.000000   0.000000   0.000000
 -0.080418  89.597600  -0.445579  -2.158980  -4.093740  -1.969490   0.698628   2.128160  -0.235996   1.407520   4.253260  -0.498473   1.299470   0.383068  -0.005954   2.137440   0.775368   0.277397  -2.262310  -1.714480   2.579180 -77.417700  14.220500   2.316390  -0.552836  -0.819568 -16.163600  13.598300  -9.910610   6.104740  41.566200  35.325300 -63.992800 -30.526300  -0.002310   0.006298 -10.257400   0.014103   0.002828 -23.463100   3.037270  -6.953480 -19.348100  -0.007889   0.000692 -13.543700  -0.005687   0.001574 -25.366000  -0.208059   0.438815 -25.366900   0.002027   0.005469 -16.894400  -0.001254  -0.010880 -24.537100  -0.204850   0.441784 -24.537900   0.003006   0.001607 -16.342200   0.002147   0.000194 -25.532400  -0.212556   0.438214 -38.299800   0.002902  -0.002354 -25.507700   0.001642   0.001031   7.539190   1.709010   2.048760  71.822100   7.000410  -6.854450  -0.223624  -9.787320  13.697700 -12.331900  -4.251380  -2.110020 -36.154400  30.287500  63.082200  33.641600  -0.004946  -0.006818  11.819200   0.003727  -0.003679  30.614500   5.478020   9.164420  25.408400  -0.005780  -0.007038  17.785900  -0.002979  -0.008803  28.548500   2.312890   4.241790  37.946500  -0.004803  -0.004692  25.272400  -0.004186  -0.001646  27.530600   1.935010   3.704480  29.720300  -0.002429  -0.009391  19.793700  -0.004193  -0.006163  37.655400  -0.420670  -0.536322  56.485900   0.001617  -0.013614  37.619600  -0.010533  -0.001739   1.352930   5.884830   3.522140   1.597780   0.267983  10.935200  -2.180180  -2.829420   1.648890   0.000000   0.000000   0.000000   3.074910   3.503490  -3.278930  -0.934809   3.215620  -8.695790  -0.156733  -3.779520   1.794320  -0.000000   0.000000   0.000000
 -0.080137  89.597600  -0.421579  -2.158450  -4.102830  -1.959680   0.698574   2.140450  -0.228824   1.407170   4.277940  -0.484273   1.299490   0.392650  -0.005960   2.137400   0.794528   0.263858  -2.266700  -1.707400   2.557320 -77.387000  14.243600   2.289860  -0.556501  -0.829707 -16.209300  13.633100  -9.917280   6.102980  41.588100  35.339500 -63.971100 -30.514800  -0.002324   0.006303 -10.257400   0.014405   0.002832 -23.438100   3.037180  -6.967910 -19.327900  -0.007905   0.000791 -13.529600  -0.005797   0.001578 -25.340200  -0.201876   0.426312 -25.341000   0.002220   0.005572 -16.877100  -0.001040  -0.011083 -24.518500  -0.204640   0.429165 -24.519300   0.003280   0.001422 -16.329800   0.002348   0.000257 -25.514800  -0.212339   0.425693 -38.273500   0.003198  -0.002357 -25.490200   0.001804   0.001146   7.547450   1.709040   2.048760  71.840600   7.040590  -6.845310  -0.212445  -9.786470  13.705500 -12.325400  -4.260420  -2.121130 -36.146600  30.254100  63.029000  33.641600  -0.004942  -0.006789  11.818800   0.003725  -0.003667  30.609300   5.464260   9.143720  25.401800  -0.005769  -0.007011  17.781200  -0.002987  -0.008820  28.550300   2.301220   4.220530  37.929500  -0.004804  -0.004685  25.261100  -0.004199  -0.001638  27.531900   1.924630   3.685420  29.702200  -0.002439  -0.009415  19.781700  -0.004188  -0.006179  37.645100  -0.420758  -0.536147  56.470700   0.001623  -0.013640  37.609500  -0.010554  -0.001755   1.351810   5.901240   3.515530   1.600140   0.272084  10.957800  -2.189810  -2.830280   1.624640   0.000000   0.000000   0.000000   3.079470   3.559130  -3.304770  -0.931045   3.160620  -8.690430  -0.170974  -3.779330   1.800500  -0.000000   0.000000   0.000000
 -0.080146  89.597600  -0.400967  -2.157780  -4.121060  -1.943750   0.698226   2.154690  -0.222745   1.406320   4.306510  -0.472264   1.299330   0.404409  -0.005955   2.137890   0.818783   0.257703  -2.274270  -1.701570   2.551590 -77.360600  14.279400   2.256450  -0.552905  -0.833621 -16.249900  13.686900  -9.942300   6.120790  41.579500  35.337300 -63.961700 -30.522900  -0.002335   0.006309 -10.261400   0.014809   0.002840 -23.449800   3.042020  -6.977620 -19.338000  -0.007916   0.000928 -13.536700  -0.005941   0.001581 -25.356400  -0.205732   0.434009 -25.357300   0.002306   0.005713 -16.887900  -0.000829  -0.011362 -24.532800  -0.204693   0.436921 -24.533500   0.003400   0.001234 -16.339300   0.002434   0.000319 -25.525800  -0.212393   0.433397 -38.289900   0.003326  -0.002362 -25.501200   0.001871   0.001194   7.555840   1.703620   2.049160  71.855700   7.070940  -6.841770  -0.203725  -9.813640  13.701800 -12.333400  -4.292240  -2.131670 -36.155100  30.280000  63.050800  33.645900  -0.004941  -0.006740  11.821800   0.003728  -0.003658  30.598800   5.458610   9.137950  25.392100  -0.005749  -0.006966  17.774500  -0.002998  -0.008847  28.551500   2.293260   4.206100  37.908200  -0.004809  -0.004677  25.246900  -0.004219  -0.001626  27.532600   1.918130   3.676860  29.677000  -0.002456  -0.009453  19.765700  -0.004180  -0.006205  37.630100  -0.420884  -0.536556  56.448200   0.001632  -0.013685  37.594500  -0.010586  -0.001781   1.353100   5.948000   3.515660   1.597480   0.234018  10.967100  -2.190550  -2.820300   1.602040   0.000000   0.000000  -0.000000   3.088370   3.617650  -3.313500  -0.932361   3.110630  -8.700120  -0.188690  -3.776960   1.795530  -0.000000   0.000000  -0.000000
